<?xml version="1.0" encoding="UTF-8" standalone="no"?>
<svg
   version="1.1"
   viewBox="0.00 0.00 301.00 301.00"
   id="svg18367"
   sodipodi:docname="sneed 4.svg"
   inkscape:version="1.2.2 (732a01da63, 2022-12-09)"
   xmlns:inkscape="http://www.inkscape.org/namespaces/inkscape"
   xmlns:sodipodi="http://sodipodi.sourceforge.net/DTD/sodipodi-0.dtd"
   xmlns="http://www.w3.org/2000/svg"
   xmlns:svg="http://www.w3.org/2000/svg">
  <defs
     id="defs18371" />
  <sodipodi:namedview
     id="namedview18369"
     pagecolor="#ffffff"
     bordercolor="#000000"
     borderopacity="0.25"
     inkscape:showpageshadow="2"
     inkscape:pageopacity="0.0"
     inkscape:pagecheckerboard="0"
     inkscape:deskcolor="#d1d1d1"
     showgrid="true"
     inkscape:zoom="1"
     inkscape:cx="409.5"
     inkscape:cy="334"
     inkscape:window-width="1920"
     inkscape:window-height="974"
     inkscape:window-x="-11"
     inkscape:window-y="-11"
     inkscape:window-maximized="1"
     inkscape:current-layer="svg18367">
    <inkscape:grid
       type="xygrid"
       id="grid21031" />
  </sodipodi:namedview>
  <g
     stroke-width="2.00"
     fill="none"
     stroke-linecap="butt"
     id="g18347">
    <path
       stroke="#7e7e7e"
       vector-effect="non-scaling-stroke"
       d="   M 136.86 238.85   C 126.40 234.92 116.24 225.08 114.14 213.47   C 112.01 201.69 120.80 189.73 130.40 183.75   Q 131.29 183.20 130.25 183.20   L 112.18 183.27   Q 111.58 183.27 111.19 183.71   C 103.29 192.63 98.89 205.62 101.73 217.51   C 112.89 264.34 183.06 266.13 198.77 222.21   C 208.37 195.38 185.38 177.19 164.20 167.53   Q 146.40 159.41 128.95 150.58   C 100.61 136.23 78.99 112.04 88.93 77.80   C 98.97 43.20 137.73 23.52 171.63 35.43   C 207.97 48.20 226.72 88.99 206.74 123.79   Q 206.48 124.25 207.00 124.25   L 220.23 124.25   Q 220.70 124.25 220.90 123.83   C 226.47 112.50 227.32 103.11 227.24 90.39   C 226.99 50.45 190.57 20.36 152.66 19.34   C 112.49 18.27 76.60 48.91 74.27 89.66   C 70.99 147.09 126.24 163.12 164.71 182.51   C 181.78 191.11 196.96 208.32 181.51 227.04   C 170.64 240.20 152.58 244.76 136.86 238.85"
       id="path18331" />
    <path
       stroke="#7e7e7e"
       vector-effect="non-scaling-stroke"
       d="   M 33.98 266.76   A 0.73 0.72 -0.0 0 1 33.25 266.04   L 33.25 33.75   A 0.50 0.50 0.0 0 1 33.75 33.25   L 85.70 33.25   A 2.06 2.03 19.7 0 0 87.27 32.52   Q 93.06 25.61 100.89 21.24   Q 101.73 20.78 100.77 20.77   L 19.96 20.64   Q 19.43 20.63 19.45 21.16   Q 20.93 82.20 20.13 138.69   C 19.45 186.34 21.18 232.26 20.31 279.04   A 0.58 0.58 0.0 0 0 20.89 279.63   L 100.02 279.46   Q 101.03 279.46 100.16 278.96   C 94.07 275.43 90.48 272.26 85.79 267.17   Q 85.40 266.74 84.82 266.74   L 33.98 266.76"
       id="path18333" />
    <path
       stroke="#7e7e7e"
       vector-effect="non-scaling-stroke"
       d="   M 268.25 33.75   L 268.25 266.61   Q 268.25 266.96 267.90 266.96   L 217.48 266.90   Q 216.87 266.90 216.41 267.30   C 211.65 271.45 207.47 276.00 201.86 278.75   Q 200.51 279.41 202.01 279.42   L 280.31 279.73   Q 280.88 279.73 280.87 279.17   Q 280.17 150.17 282.00 21.18   Q 282.00 20.67 281.50 20.67   L 200.49 20.62   A 0.33 0.32 -30.6 0 0 200.33 21.23   Q 208.76 25.74 215.01 32.92   Q 215.30 33.25 215.74 33.25   L 267.75 33.25   Q 268.25 33.25 268.25 33.75"
       id="path18335" />
    <path
       stroke="#7e7e7e"
       vector-effect="non-scaling-stroke"
       d="   M 111.56 255.44   C 97.40 244.98 86.68 226.19 86.97 208.30   Q 87.18 195.36 93.83 183.74   A 0.37 0.37 0.0 0 0 93.51 183.19   L 80.15 183.21   A 0.60 0.60 0.0 0 0 79.59 183.59   C 60.91 228.44 95.00 274.58 140.33 280.22   C 186.19 285.92 230.55 251.79 227.03 203.69   C 223.84 160.08 178.95 143.77 145.19 128.38   C 130.41 121.64 112.41 110.07 113.65 91.13   C 115.04 69.79 135.78 56.69 155.73 59.16   C 183.92 62.65 201.29 96.38 176.22 117.24   Q 172.02 120.74 167.64 123.62   A 0.34 0.34 0.0 0 0 167.83 124.25   L 187.51 124.25   A 1.33 1.32 21.6 0 0 188.47 123.84   C 215.57 94.92 196.50 53.51 160.92 46.81   C 138.88 42.65 116.50 52.47 105.81 72.47   C 96.51 89.85 99.46 110.03 114.21 123.55   Q 123.52 132.09 131.26 136.05   Q 140.40 140.73 174.17 156.65   C 196.12 167.00 215.66 185.58 214.66 211.21   C 214.14 224.47 208.77 236.23 199.97 246.19   C 187.09 260.76 171.27 267.61 152.14 267.85   C 137.21 268.04 123.87 264.52 111.56 255.44"
       id="path18337" />
    <path
       stroke="#7e7e7e"
       vector-effect="non-scaling-stroke"
       d="   M 59.49 241.37   L 59.50 60.00   Q 59.50 59.50 60.00 59.50   L 67.14 59.50   A 0.50 0.49 14.4 0 0 67.57 59.25   L 74.31 47.23   A 0.54 0.54 0.0 0 0 73.83 46.42   L 47.78 46.76   Q 46.87 46.77 46.89 47.68   Q 47.55 78.90 47.09 109.82   Q 46.58 144.23 47.31 253.00   Q 47.31 253.50 47.81 253.50   L 74.01 253.50   Q 74.78 253.50 74.31 252.89   Q 70.57 247.98 68.13 242.30   Q 67.89 241.75 67.29 241.75   L 59.87 241.75   Q 59.49 241.75 59.49 241.37"
       id="path18339" />
    <path
       stroke="#7e7e7e"
       vector-effect="non-scaling-stroke"
       d="   M 226.95 252.75   Q 226.69 252.78 226.79 253.15   Q 226.88 253.50 227.24 253.50   L 254.50 253.50   A 0.50 0.50 0.0 0 0 255.00 253.00   L 255.00 47.18   A 0.81 0.81 0.0 0 0 254.17 46.37   L 227.75 47.05   Q 226.53 47.08 227.25 48.06   Q 230.93 53.04 233.16 58.80   A 1.22 1.22 0.0 0 0 234.35 59.57   L 241.06 59.25   A 0.68 0.68 0.0 0 1 241.77 59.93   Q 241.62 147.77 242.08 235.62   C 242.09 237.25 242.34 239.18 242.46 241.02   A 0.69 0.68 -1.9 0 1 241.77 241.75   L 233.78 241.75   A 0.75 0.74 11.2 0 0 233.09 242.20   Q 230.70 247.76 227.15 252.63   Q 227.07 252.74 226.95 252.75"
       id="path18341" />
    <path
       stroke="#7e7e7e"
       vector-effect="non-scaling-stroke"
       d="   M 178.45 91.24   C 168.01 67.09 134.34 68.07 123.44 91.16   Q 123.24 91.59 123.47 92.00   L 129.53 102.44   A 0.33 0.33 0.0 0 0 130.14 102.36   C 132.91 92.36 141.02 85.93 151.43 86.27   C 161.86 86.60 167.19 92.78 171.34 101.78   Q 171.65 102.45 172.05 101.83   L 178.39 92.05   Q 178.64 91.66 178.45 91.24"
       id="path18343" />
    <path
       stroke="#7e7e7e"
       vector-effect="non-scaling-stroke"
       d="   M 170.95 201.40   C 162.25 218.86 138.19 218.93 130.33 200.78   Q 130.09 200.23 129.76 200.73   L 123.61 209.92   Q 123.33 210.33 123.58 210.75   Q 134.01 228.65 153.38 226.93   C 164.63 225.93 173.05 220.50 177.66 210.26   Q 177.86 209.83 177.57 209.44   L 171.65 201.34   A 0.41 0.41 0.0 0 0 170.95 201.40"
       id="path18345" />
  </g>
  <path
     fill="#000000"
     d="M 0,0 H 301 V 301 H 0 Z m 136.86,238.85 c -10.46,-3.93 -20.62,-13.77 -22.72,-25.38 -2.13,-11.78 6.66,-23.74 16.26,-29.72 0.59333,-0.36667 0.54333,-0.55 -0.15,-0.55 l -18.07,0.07 c -0.4,0 -0.73,0.14667 -0.99,0.44 -7.9,8.92 -12.3,21.91 -9.46,33.8 11.16,46.83 81.33,48.62 97.04,4.7 9.6,-26.83 -13.39,-45.02 -34.57,-54.68 -11.86667,-5.41333 -23.61667,-11.06333 -35.25,-16.95 -28.34,-14.35 -49.96,-38.54 -40.02,-72.78 10.04,-34.6 48.8,-54.28 82.7,-42.37 36.34,12.77 55.09,53.56 35.11,88.36 -0.17333,0.30667 -0.0867,0.46 0.26,0.46 h 13.23 c 0.31333,0 0.53667,-0.14 0.67,-0.42 5.57,-11.33 6.42,-20.72 6.34,-33.44 C 226.99,50.45 190.57,20.36 152.66,19.34 112.49,18.27 76.6,48.91 74.27,89.66 c -3.28,57.43 51.97,73.46 90.44,92.85 17.07,8.6 32.25,25.81 16.8,44.53 -10.87,13.16 -28.93,17.72 -44.65,11.81 z M 33.98,266.76 c -0.403168,0 -0.73,-0.32235 -0.73,-0.72 V 33.75 c 0,-0.276142 0.223858,-0.5 0.5,-0.5 H 85.7 c 0.609009,-4.66e-4 1.183975,-0.267806 1.57,-0.73 3.86,-4.606667 8.4,-8.366667 13.62,-11.28 0.56,-0.306667 0.52,-0.463333 -0.12,-0.47 L 19.96,20.64 c -0.353333,-0.0067 -0.523333,0.166667 -0.51,0.52 0.986667,40.693333 1.213333,79.87 0.68,117.53 -0.68,47.65 1.05,93.57 0.18,140.35 -0.0056,0.32422 0.255729,0.59005 0.58,0.59 l 79.13,-0.17 c 0.67333,0 0.72,-0.16667 0.14,-0.5 -6.09,-3.53 -9.68,-6.7 -14.37,-11.79 -0.26,-0.28667 -0.583333,-0.43 -0.97,-0.43 z M 268.25,33.75 v 232.86 c 0,0.23333 -0.11667,0.35 -0.35,0.35 l -50.42,-0.06 c -0.40667,0 -0.76333,0.13333 -1.07,0.4 -4.76,4.15 -8.94,8.7 -14.55,11.45 -0.9,0.44 -0.85,0.66333 0.15,0.67 l 78.3,0.31 c 0.38,0 0.56667,-0.18667 0.56,-0.56 -0.46667,-86 -0.09,-171.99667 1.13,-257.99 0,-0.34 -0.16667,-0.51 -0.5,-0.51 l -81.01,-0.05 c -0.34122,0.0055 -0.45972,0.457286 -0.16,0.61 5.62,3.006667 10.51333,6.903333 14.68,11.69 0.19333,0.22 0.43667,0.33 0.73,0.33 h 52.01 c 0.33333,0 0.5,0.166667 0.5,0.5 z M 111.56,255.44 C 97.4,244.98 86.68,226.19 86.97,208.3 c 0.14,-8.62667 2.426667,-16.81333 6.86,-24.56 0.136638,-0.24537 -0.03917,-0.54753 -0.32,-0.55 l -13.36,0.02 c -0.247108,-7.4e-4 -0.469394,0.1501 -0.56,0.38 -18.68,44.85 15.41,90.99 60.74,96.63 45.86,5.7 90.22,-28.43 86.7,-76.53 -3.19,-43.61 -48.08,-59.92 -81.84,-75.31 -14.78,-6.74 -32.78,-18.31 -31.54,-37.25 1.39,-21.34 22.13,-34.44 42.08,-31.97 28.19,3.49 45.56,37.22 20.49,58.08 -2.8,2.33333 -5.66,4.46 -8.58,6.38 -0.29908,0.18247 -0.16009,0.64331 0.19,0.63 h 19.68 c 0.36361,2e-5 0.71057,-0.14816 0.96,-0.41 27.1,-28.92 8.03,-70.33 -27.55,-77.03 -22.04,-4.16 -44.42,5.66 -55.11,25.66 -9.3,17.38 -6.35,37.56 8.4,51.08 6.20667,5.69333 11.89,9.86 17.05,12.5 6.09333,3.12 20.39667,9.98667 42.91,20.6 21.95,10.35 41.49,28.93 40.49,54.56 -0.52,13.26 -5.89,25.02 -14.69,34.98 -12.88,14.57 -28.7,21.42 -47.83,21.66 -14.93,0.19 -28.27,-3.33 -40.58,-12.41 z M 59.49,241.37 59.5,60 c 0,-0.333333 0.166667,-0.5 0.5,-0.5 h 7.14 c 0.179391,-9.56e-4 0.343537,-0.09639 0.43,-0.25 l 6.74,-12.02 c 0.210766,-0.3648 -0.0588,-0.819697 -0.48,-0.81 l -26.05,0.34 c -0.606667,0.0067 -0.903333,0.313333 -0.89,0.92 0.44,20.813333 0.506667,41.526667 0.2,62.14 -0.34,22.94 -0.266667,70.66667 0.22,143.18 0,0.33333 0.166667,0.5 0.5,0.5 h 26.2 c 0.513333,0 0.613333,-0.20333 0.3,-0.61 -2.493333,-3.27333 -4.553333,-6.80333 -6.18,-10.59 -0.16,-0.36667 -0.44,-0.55 -0.84,-0.55 h -7.42 c -0.253333,0 -0.38,-0.12667 -0.38,-0.38 z m 167.46,11.38 c -0.17333,0.02 -0.22667,0.15333 -0.16,0.4 0.06,0.23333 0.21,0.35 0.45,0.35 h 27.26 c 0.27614,0 0.5,-0.22386 0.5,-0.5 V 47.18 c 1.4e-4,-0.455279 -0.37486,-0.821241 -0.83,-0.81 l -26.42,0.68 c -0.81333,0.02 -0.98,0.356667 -0.5,1.01 2.45333,3.32 4.42333,6.9 5.91,10.74 0.1916,0.484398 0.66962,0.793708 1.19,0.77 l 7.15747,-0.154272 c 0.38721,-0.0171 0.26291,0.126684 0.26253,0.514272 -0.1,58.56 0.003,117.12333 0.31,175.69 -0.0264,3.73913 -0.0309,3.66909 -0.0321,5.49697 -0.0194,0.63505 0.0446,0.82407 -0.27787,0.63303 h -7.99 c -0.30139,-0.001 -0.57322,0.17618 -0.69,0.45 -1.59333,3.70667 -3.57333,7.18333 -5.94,10.43 -0.0533,0.0733 -0.12,0.11333 -0.2,0.12 z M 178.45,91.24 c -10.44,-24.15 -44.11,-23.17 -55.01,-0.08 -0.13333,0.286667 -0.12333,0.566667 0.03,0.84 l 6.06,10.44 c 0.1446,0.26414 0.5384,0.21249 0.61,-0.08 2.77,-10 10.88,-16.43 21.29,-16.09 10.43,0.33 15.76,6.51 19.91,15.51 0.20667,0.44667 0.44333,0.46333 0.71,0.05 l 6.34,-9.78 c 0.16667,-0.26 0.18667,-0.53 0.06,-0.81 z m -7.5,110.16 c -8.7,17.46 -32.76,17.53 -40.62,-0.62 -0.16,-0.36667 -0.35,-0.38333 -0.57,-0.05 l -6.15,9.19 c -0.18667,0.27333 -0.19667,0.55 -0.03,0.83 6.95333,11.93333 16.88667,17.32667 29.8,16.18 11.25,-1 19.67,-6.43 24.28,-16.67 0.13333,-0.28667 0.10333,-0.56 -0.09,-0.82 l -5.92,-8.1 c -0.18138,-0.25019 -0.56384,-0.21741 -0.7,0.06 z"
     id="path18349"
     sodipodi:nodetypes="ccccccccccccccccccssccccccccsssccccccccccccccssccccccccccccssscccccccccccccccccccccccccccsccccccccssccsscccssscccccccccccccccccccccccccccccccccccc" />
  <path
     fill="#fbfbfb"
     d="   M 136.86 238.85   C 152.58 244.76 170.64 240.20 181.51 227.04   C 196.96 208.32 181.78 191.11 164.71 182.51   C 126.24 163.12 70.99 147.09 74.27 89.66   C 76.60 48.91 112.49 18.27 152.66 19.34   C 190.57 20.36 226.99 50.45 227.24 90.39   C 227.32 103.11 226.47 112.50 220.90 123.83   Q 220.70 124.25 220.23 124.25   L 207.00 124.25   Q 206.48 124.25 206.74 123.79   C 226.72 88.99 207.97 48.20 171.63 35.43   C 137.73 23.52 98.97 43.20 88.93 77.80   C 78.99 112.04 100.61 136.23 128.95 150.58   Q 146.40 159.41 164.20 167.53   C 185.38 177.19 208.37 195.38 198.77 222.21   C 183.06 266.13 112.89 264.34 101.73 217.51   C 98.89 205.62 103.29 192.63 111.19 183.71   Q 111.58 183.27 112.18 183.27   L 130.25 183.20   Q 131.29 183.20 130.40 183.75   C 120.80 189.73 112.01 201.69 114.14 213.47   C 116.24 225.08 126.40 234.92 136.86 238.85   Z"
     id="path18351" />
  <path
     fill="#fbfbfb"
     d="   M 33.98 266.76   L 84.82 266.74   Q 85.40 266.74 85.79 267.17   C 90.48 272.26 94.07 275.43 100.16 278.96   Q 101.03 279.46 100.02 279.46   L 20.89 279.63   A 0.58 0.58 0.0 0 1 20.31 279.04   C 21.18 232.26 19.45 186.34 20.13 138.69   Q 20.93 82.20 19.45 21.16   Q 19.43 20.63 19.96 20.64   L 100.77 20.77   Q 101.73 20.78 100.89 21.24   Q 93.06 25.61 87.27 32.52   A 2.06 2.03 19.7 0 1 85.70 33.25   L 33.75 33.25   A 0.50 0.50 0.0 0 0 33.25 33.75   L 33.25 266.04   A 0.73 0.72 -0.0 0 0 33.98 266.76   Z"
     id="path18353" />
  <path
     fill="#fbfbfb"
     d="   M 267.75 33.25   L 215.74 33.25   Q 215.30 33.25 215.01 32.92   Q 208.76 25.74 200.33 21.23   A 0.33 0.32 -30.6 0 1 200.49 20.62   L 281.50 20.67   Q 282.00 20.67 282.00 21.18   Q 280.17 150.17 280.87 279.17   Q 280.88 279.73 280.31 279.73   L 202.01 279.42   Q 200.51 279.41 201.86 278.75   C 207.47 276.00 211.65 271.45 216.41 267.30   Q 216.87 266.90 217.48 266.90   L 267.90 266.96   Q 268.25 266.96 268.25 266.61   L 268.25 33.75   Q 268.25 33.25 267.75 33.25   Z"
     id="path18355" />
  <path
     fill="#fbfbfb"
     d="   M 111.56 255.44   C 123.87 264.52 137.21 268.04 152.14 267.85   C 171.27 267.61 187.09 260.76 199.97 246.19   C 208.77 236.23 214.14 224.47 214.66 211.21   C 215.66 185.58 196.12 167.00 174.17 156.65   Q 140.40 140.73 131.26 136.05   Q 123.52 132.09 114.21 123.55   C 99.46 110.03 96.51 89.85 105.81 72.47   C 116.50 52.47 138.88 42.65 160.92 46.81   C 196.50 53.51 215.57 94.92 188.47 123.84   A 1.33 1.32 21.6 0 1 187.51 124.25   L 167.83 124.25   A 0.34 0.34 0.0 0 1 167.64 123.62   Q 172.02 120.74 176.22 117.24   C 201.29 96.38 183.92 62.65 155.73 59.16   C 135.78 56.69 115.04 69.79 113.65 91.13   C 112.41 110.07 130.41 121.64 145.19 128.38   C 178.95 143.77 223.84 160.08 227.03 203.69   C 230.55 251.79 186.19 285.92 140.33 280.22   C 95.00 274.58 60.91 228.44 79.59 183.59   A 0.60 0.60 0.0 0 1 80.15 183.21   L 93.51 183.19   A 0.37 0.37 0.0 0 1 93.83 183.74   Q 87.18 195.36 86.97 208.30   C 86.68 226.19 97.40 244.98 111.56 255.44   Z"
     id="path18357" />
  <path
     fill="#fbfbfb"
     d="   M 59.87 241.75   L 67.29 241.75   Q 67.89 241.75 68.13 242.30   Q 70.57 247.98 74.31 252.89   Q 74.78 253.50 74.01 253.50   L 47.81 253.50   Q 47.31 253.50 47.31 253.00   Q 46.58 144.23 47.09 109.82   Q 47.55 78.90 46.89 47.68   Q 46.87 46.77 47.78 46.76   L 73.83 46.42   A 0.54 0.54 0.0 0 1 74.31 47.23   L 67.57 59.25   A 0.50 0.49 14.4 0 1 67.14 59.50   L 60.00 59.50   Q 59.50 59.50 59.50 60.00   L 59.49 241.37   Q 59.49 241.75 59.87 241.75   Z"
     id="path18359" />
  <path
     fill="#fbfbfb"
     d="m 227.15,252.63 c 2.36667,-3.24667 4.34667,-6.72333 5.94,-10.43 0.11678,-0.27382 0.38861,-0.4511 0.69,-0.45 l 8.14234,-0.0312 c 0.40151,6.7e-4 0.14101,0.3873 0.11188,-0.007 -0.12,-1.84 0.0558,-4.46141 0.0458,-6.09141 -0.30667,-58.56667 -0.41552,-117.55076 -0.31552,-176.110765 3.8e-4,-0.387588 0.44221,-0.03327 0.055,-0.0162 l -7.46948,0.07693 c -0.52038,0.02371 -0.9984,-0.285602 -1.19,-0.77 -1.48667,-3.84 -3.45667,-7.42 -5.91,-10.74 -0.48,-0.653333 -0.31333,-0.99 0.5,-1.01 l 26.42,-0.68 c 0.45514,-0.01124 0.83014,0.354721 0.83,0.81 V 253 c 0,0.27614 -0.22386,0.5 -0.5,0.5 h -27.26 c -0.24,0 -0.39,-0.11667 -0.45,-0.35 -0.0667,-0.24667 -0.0133,-0.38 0.16,-0.4 0.08,-0.007 0.14667,-0.0467 0.2,-0.12 z"
     id="path18361"
     sodipodi:nodetypes="ccccccccccccccssscccc" />
  <path
     fill="#fbfbfb"
     d="   M 123.44 91.16   C 134.34 68.07 168.01 67.09 178.45 91.24   Q 178.64 91.66 178.39 92.05   L 172.05 101.83   Q 171.65 102.45 171.34 101.78   C 167.19 92.78 161.86 86.60 151.43 86.27   C 141.02 85.93 132.91 92.36 130.14 102.36   A 0.33 0.33 0.0 0 1 129.53 102.44   L 123.47 92.00   Q 123.24 91.59 123.44 91.16   Z"
     id="path18363" />
  <path
     fill="#fbfbfb"
     d="   M 130.33 200.78   C 138.19 218.93 162.25 218.86 170.95 201.40   A 0.41 0.41 0.0 0 1 171.65 201.34   L 177.57 209.44   Q 177.86 209.83 177.66 210.26   C 173.05 220.50 164.63 225.93 153.38 226.93   Q 134.01 228.65 123.58 210.75   Q 123.33 210.33 123.61 209.92   L 129.76 200.73   Q 130.09 200.23 130.33 200.78   Z"
     id="path18365" />
</svg>
